<svg xmlns="http://www.w3.org/2000/svg" width="402.24" height="402.24" viewBox="0 0 402.24 402.24"><defs><style>.cls-1{fill:#fff;}.cls-2{fill:#231815;}.cls-3{fill:#dc481f;}.cls-4{fill:#201512;}.cls-5{fill:#e94816;}</style></defs><title>アセット 1</title><g id="レイヤー_2" data-name="レイヤー 2"><g id="ribbon"><circle class="cls-1" cx="201.12" cy="201.12" r="201.12"/><path class="cls-2" d="M49.08,259l11.29,19.4L71.61,259h.84L60.71,279.11v13.42H60V279.06L48.24,259Z"/><path class="cls-2" d="M91.68,292.53v-6.82a11.54,11.54,0,0,1-10.18,7.49c-5,0-8.39-2.46-8.39-10.85v-14h.73v14c0,7.83,3,10.18,7.66,10.18s10.18-4.3,10.18-9.84V268.38h.73v24.15Z"/><path class="cls-2" d="M124.67,267.71c5.42,0,7.32,3.86,7.32,9.11v15.71h-.73V277c0-6.82-3.08-8.67-6.65-8.67-4.86,0-9.45,5.14-9.45,9.62v14.54h-.73V277c0-6.82-3.08-8.67-6.65-8.67-4.86,0-9.45,5.14-9.45,9.62v14.54h-.73V268.38h.73V275c1.45-4.25,5.65-7.32,9.5-7.32,4.53,0,6.82,2.8,7.21,7.55C116.5,270.73,120.81,267.71,124.67,267.71Z"/><rect class="cls-2" x="137.02" y="263.73" width="0.73" height="2.24"/><rect class="cls-2" x="137.02" y="268.38" width="0.73" height="24.15"/><path class="cls-2" d="M171,259h1l-17.33,17.11,19.62,16.44h-1.12l-19.4-16.27v16.27H153V259h.73V276Z"/><path class="cls-2" d="M186.95,293.2c-6.32,0-11.57-5-11.57-12.75s5.26-12.75,11.57-12.75a11,11,0,0,1,10.9,8.5v-7.83h.73v24.15h-.73V284.7A11,11,0,0,1,186.95,293.2ZM176.1,280.45c0,7.44,4.86,12.08,10.85,12.08s11-4.64,11-12.08-5-12.08-11-12.08S176.1,273.07,176.1,280.45Z"/><path class="cls-2" d="M204.44,268.38v6.82a11.54,11.54,0,0,1,10.18-7.49c5,0,8.39,2.46,8.39,10.85v14h-.73v-14c0-7.83-3-10.18-7.66-10.18s-10.18,4.3-10.18,9.84v14.31h-.73V268.38Z"/><path class="cls-2" d="M238.27,293.2c-6.32,0-11.57-5-11.57-12.75s5.26-12.75,11.57-12.75a11,11,0,0,1,10.9,8.5v-7.83h.73v24.15h-.73V284.7A11,11,0,0,1,238.27,293.2Zm-10.85-12.75c0,7.44,4.86,12.08,10.85,12.08s11-4.64,11-12.08-5-12.08-11-12.08S227.42,273.07,227.42,280.45Z"/><path class="cls-2" d="M282.1,267.71c5.42,0,7.32,3.86,7.32,9.11v15.71h-.73V277c0-6.82-3.08-8.67-6.65-8.67-4.86,0-9.45,5.14-9.45,9.62v14.54h-.73V277c0-6.82-3.08-8.67-6.65-8.67-4.86,0-9.45,5.14-9.45,9.62v14.54H255V268.38h.73V275c1.45-4.25,5.65-7.32,9.5-7.32,4.53,0,6.82,2.8,7.21,7.55C273.94,270.73,278.24,267.71,282.1,267.71Z"/><path class="cls-2" d="M304.68,293.2c-6.32,0-11.57-5-11.57-12.75s5.26-12.75,11.57-12.75a11,11,0,0,1,10.9,8.5v-7.83h.73v24.15h-.73V284.7A11,11,0,0,1,304.68,293.2Zm-10.85-12.75c0,7.44,4.86,12.08,10.85,12.08s11-4.64,11-12.08-5-12.08-11-12.08S293.84,273.07,293.84,280.45Z"/><path class="cls-2" d="M322.18,268.38v6.43a10.06,10.06,0,0,1,9.06-7.1v.73c-4.64,0-9.06,4.53-9.06,9.5v14.59h-.73V268.38Z"/><path class="cls-2" d="M353.27,292.53v-6.82a11.54,11.54,0,0,1-10.18,7.49c-5,0-8.39-2.46-8.39-10.85v-14h.73v14c0,7.83,3,10.18,7.66,10.18s10.18-4.3,10.18-9.84V268.38H354v24.15Z"/><line class="cls-3" x1="191.28" y1="233.65" x2="199.32" y2="233.74"/><path class="cls-1" d="M191.28,233.65l.35-.12a9.17,9.17,0,0,1,.91-.23,13.64,13.64,0,0,1,2.77-.24,13.49,13.49,0,0,1,2.76.3,9.06,9.06,0,0,1,.91.26l.34.13-.35.12a9.06,9.06,0,0,1-.91.24,13.49,13.49,0,0,1-2.77.24,13.64,13.64,0,0,1-2.76-.3,9.16,9.16,0,0,1-.91-.26Z"/><line class="cls-3" x1="212.14" y1="233.65" x2="204.1" y2="233.74"/><path class="cls-1" d="M212.14,233.65l-.34.13a9.17,9.17,0,0,1-.91.26,13.64,13.64,0,0,1-2.76.3,13.49,13.49,0,0,1-2.77-.24,9.07,9.07,0,0,1-.91-.24l-.35-.12.34-.13a9.06,9.06,0,0,1,.91-.26,13.49,13.49,0,0,1,2.76-.3,13.64,13.64,0,0,1,2.77.24,9.17,9.17,0,0,1,.91.23Z"/><line class="cls-3" x1="195.5" y1="236.5" x2="199.01" y2="234.78"/><path class="cls-1" d="M195.5,236.5a1.55,1.55,0,0,1,.09-.19,2.92,2.92,0,0,1,.29-.41,3.4,3.4,0,0,1,1.09-.83,3.36,3.36,0,0,1,1.33-.35,2.9,2.9,0,0,1,.51,0l.21,0a1.54,1.54,0,0,1-.09.19,2.9,2.9,0,0,1-.29.42,3.36,3.36,0,0,1-1.09.83,3.4,3.4,0,0,1-1.33.34,2.92,2.92,0,0,1-.5,0Z"/><line class="cls-3" x1="207.69" y1="236.5" x2="204.18" y2="234.78"/><path class="cls-1" d="M207.69,236.5l-.21,0a2.92,2.92,0,0,1-.5,0,3.4,3.4,0,0,1-1.33-.34,3.36,3.36,0,0,1-1.09-.83,2.9,2.9,0,0,1-.29-.42,1.54,1.54,0,0,1-.09-.19l.21,0a2.9,2.9,0,0,1,.51,0,3.36,3.36,0,0,1,1.33.35,3.4,3.4,0,0,1,1.09.83,2.93,2.93,0,0,1,.29.41A1.56,1.56,0,0,1,207.69,236.5Z"/><line class="cls-3" x1="194.9" y1="230.39" x2="199.01" y2="232.24"/><path class="cls-1" d="M194.9,230.39l.23,0a3.55,3.55,0,0,1,.57,0,4.44,4.44,0,0,1,1.52.38,4.39,4.39,0,0,1,1.3.88,3.51,3.51,0,0,1,.36.43,1.76,1.76,0,0,1,.12.2l-.23,0a3.51,3.51,0,0,1-.57,0,4.39,4.39,0,0,1-1.52-.39,4.44,4.44,0,0,1-1.3-.88,3.55,3.55,0,0,1-.36-.43A1.77,1.77,0,0,1,194.9,230.39Z"/><line class="cls-3" x1="208.29" y1="230.39" x2="204.18" y2="232.24"/><path class="cls-1" d="M208.29,230.39a1.78,1.78,0,0,1-.12.2,3.54,3.54,0,0,1-.36.43,4.44,4.44,0,0,1-1.3.88,4.39,4.39,0,0,1-1.52.39,3.51,3.51,0,0,1-.57,0l-.23,0a1.76,1.76,0,0,1,.12-.2,3.51,3.51,0,0,1,.36-.43,4.39,4.39,0,0,1,1.3-.88,4.44,4.44,0,0,1,1.52-.38,3.55,3.55,0,0,1,.57,0Z"/><path class="cls-4" d="M205.28,261.6a.5.5,0,0,1-.37-.17c-.3-.36-.34-.4,4.14-10.72,4-9.23,10-23.12,10.8-27.47a.37.37,0,0,1-.22.08h-.28l-.28-.48.15-.25a.82.82,0,0,1,.38-.33c2.51-2.23,23.07-22.23,28.3-33.47,1.23-2.64,5.29-23.81,2.5-25.19-.49-.24-2.61-.07-9.22,12.46-6.21,11.76-12.56,12-15.8,11-5.53-1.58-9.63-8.61-9.13-15.66.26-3.68,2.28-12.43,15.35-14.23a13,13,0,0,1,8,1.44c8.7,4.68,10.55,3.69,10.9,3.28.56-.65.65-2.88-5.06-10.6a13.48,13.48,0,0,0-5-4.16c-21.31-10.12-32.6,7.64-36.46,15.74a.46.46,0,1,1-.83-.39c12-25.07,30.34-19.67,37.68-16.18a14.4,14.4,0,0,1,5.37,4.45c4.77,6.46,6.37,10.19,5,11.75a1.69,1.69,0,0,1-.32.29c2.39,1.34,1.1,10.22.68,13.15-.87,6-2.29,12.09-2.82,13.22-2.94,6.31-10.56,15.2-16.43,21.55-3.47,3.75-6.57,6.88-8.56,8.84-1.59,1.57-2.54,2.47-3.11,3a.85.85,0,0,1,.15.64c-.66,4.28-6.58,17.91-10.89,27.85-2,4.68-4,9.11-4.16,9.95h0a.46.46,0,0,1-.33.56ZM233.41,158a12.3,12.3,0,0,0-1.68.12c-12.41,1.71-14.31,9.93-14.56,13.39-.47,6.65,3.33,13.25,8.46,14.72,3,.85,8.83.6,14.73-10.59,2.69-5.1,5.89-10.69,8.39-12.44-2.09-.18-5.3-1.43-9.59-3.74A12.08,12.08,0,0,0,233.41,158Z"/><path class="cls-4" d="M176.37,248.32a.46.46,0,0,1-.21-.87c2.23-1.11,7.28-9.1,11.35-15.52,2.59-4.09,5-7.95,6.53-9.75s0-8.76-1.88-16.75c-2.5-10.81-5.61-24.27-2.69-32.87.07-.28,8-32.2,28.09-52.49,8.58-8.69,14.75-12.52,16.91-10.5,2.35,2.19-1.49,10.22-8.94,18.67-13.73,15.59-10.63,19.7-10.6,19.74a.46.46,0,0,1,0,.64.45.45,0,0,1-.63,0c-.41-.45-3.63-4.81,10.59-21,8.14-9.24,10.45-16,9-17.39-1.65-1.53-7.93,2.68-15.63,10.48-19.87,20.11-27.79,51.79-27.87,52.11-2.84,8.39.23,21.71,2.71,32.41,2,8.56,3.54,15.33,1.69,17.54-1.46,1.75-3.89,5.59-6.46,9.65-4.55,7.19-9.26,14.63-11.71,15.85A.46.46,0,0,1,176.37,248.32Z"/><path class="cls-4" d="M204.59,138.63l-.14,0a.46.46,0,0,1-.3-.57c7-22.38,12.09-24.81,14-24.81h0a2.3,2.3,0,0,1,2.17,1.81,5.33,5.33,0,0,1-2.14,5.72.46.46,0,1,1-.52-.76,4.44,4.44,0,0,0,1.78-4.69,1.44,1.44,0,0,0-1.3-1.16h0c-.93,0-5.89,1.18-13.08,24.16A.46.46,0,0,1,204.59,138.63Z"/><path class="cls-4" d="M194.4,159.43h0a.46.46,0,0,1-.42-.5c1.8-20.54,6.3-28.78,9.6-29.6a2,2,0,0,1,2.23.93c1.37,2.13.67,7.13-3.32,12.2a.46.46,0,1,1-.72-.57c4-5,4.3-9.54,3.27-11.13a1.08,1.08,0,0,0-1.24-.54c-2.26.56-7,7.3-8.91,28.79A.46.46,0,0,1,194.4,159.43Z"/><path class="cls-5" d="M200.32,231.68c.71-.65-20.82-16.34-23.92.7,0,0-2.37,25,23.94,6.37"/><path class="cls-1" d="M184.63,246a7.86,7.86,0,0,1-4-1c-5.36-3.1-4.56-12.22-4.53-12.6.89-4.88,3.32-7.6,7.22-8.1,7-.9,16.67,5.89,17.28,7.19a.38.38,0,0,1-.07.47l-.41-.45a.24.24,0,0,0-.07.24c-.37-.88-9.65-7.61-16.48-6.86-3.71.41-6,3-6.86,7.6,0,.06-.8,9.09,4.23,12,4,2.29,10.43.3,19.23-5.93l.35.5C194,243.62,188.66,246,184.63,246Z"/><path class="cls-5" d="M202.44,231.55c-.71-.65,21.9-15.74,23.92.7,0,0,2.37,25-23.94,6.37"/><path class="cls-1" d="M218.13,245.82c-4,0-9.35-2.32-15.89-7l.35-.5c8.8,6.23,15.27,8.22,19.23,5.93,5-2.91,4.23-11.93,4.22-12-.52-4.24-2.5-6.68-5.89-7.24-6.78-1.12-17,5.64-17.45,6.54a.24.24,0,0,0-.07-.25l-.41.45a.38.38,0,0,1-.06-.47c.62-1.26,11.21-8,18.13-6.87,3.67.62,5.81,3.23,6.36,7.77a22.08,22.08,0,0,1-.22,5.1c-.59,3.62-2.08,6.22-4.31,7.51A7.86,7.86,0,0,1,218.13,245.82Z"/><line class="cls-3" x1="190.76" y1="234.87" x2="198.8" y2="234.97"/><path class="cls-1" d="M190.76,234.87l.35-.09c.22,0,.54-.11.91-.16s.82-.1,1.29-.13,1,0,1.48,0a18.67,18.67,0,0,1,2.76.23,9.6,9.6,0,0,1,1.25.28,9.6,9.6,0,0,1-1.26.25,18.67,18.67,0,0,1-2.77.16c-.5,0-1,0-1.48-.07s-.91-.09-1.29-.16-.69-.13-.91-.18Z"/><line class="cls-3" x1="211.63" y1="234.87" x2="203.59" y2="234.97"/><path class="cls-1" d="M211.63,234.87l-.34.09c-.22.05-.53.12-.91.18s-.82.11-1.29.16-1,.06-1.48.07a18.67,18.67,0,0,1-2.77-.16,9.6,9.6,0,0,1-1.26-.25,9.6,9.6,0,0,1,1.25-.28,18.67,18.67,0,0,1,2.76-.23c.5,0,1,0,1.48,0s.91.07,1.29.13.69.11.91.16Z"/><line class="cls-3" x1="194.99" y1="237.72" x2="198.49" y2="236"/><path class="cls-1" d="M195,237.72a2.71,2.71,0,0,1,.43-.5,4.5,4.5,0,0,1,1.12-.77,4.45,4.45,0,0,1,1.29-.41,2.69,2.69,0,0,1,.66,0,2.69,2.69,0,0,1-.43.5,4.45,4.45,0,0,1-1.12.76,4.5,4.5,0,0,1-1.29.41A2.7,2.7,0,0,1,195,237.72Z"/><line class="cls-3" x1="207.18" y1="237.72" x2="203.67" y2="236"/><path class="cls-1" d="M207.18,237.72a2.7,2.7,0,0,1-.66,0,4.5,4.5,0,0,1-1.29-.41,4.45,4.45,0,0,1-1.12-.76,2.69,2.69,0,0,1-.43-.5,2.69,2.69,0,0,1,.66,0,4.45,4.45,0,0,1,1.29.41,4.5,4.5,0,0,1,1.12.77A2.7,2.7,0,0,1,207.18,237.72Z"/><line class="cls-3" x1="194.39" y1="231.62" x2="198.49" y2="233.46"/><path class="cls-1" d="M194.39,231.62a3.37,3.37,0,0,1,.75,0,5.93,5.93,0,0,1,1.49.46,5.86,5.86,0,0,1,1.33.81,3.35,3.35,0,0,1,.53.53,3.35,3.35,0,0,1-.75,0,5.86,5.86,0,0,1-1.49-.46,5.93,5.93,0,0,1-1.33-.81A3.37,3.37,0,0,1,194.39,231.62Z"/><line class="cls-3" x1="207.78" y1="231.62" x2="203.67" y2="233.46"/><path class="cls-1" d="M207.78,231.62a3.37,3.37,0,0,1-.53.53,5.93,5.93,0,0,1-1.33.81,5.86,5.86,0,0,1-1.49.46,3.35,3.35,0,0,1-.75,0,3.35,3.35,0,0,1,.53-.53,5.86,5.86,0,0,1,1.33-.81,5.93,5.93,0,0,1,1.49-.46A3.37,3.37,0,0,1,207.78,231.62Z"/><path class="cls-5" d="M205.3,235c-.14,3.51-1.09,5.79-4.17,5.7s-4.17-2.15-4.17-5.7.16-5.72,4.17-5.7C204.85,229.31,205.44,231.32,205.3,235Z"/><path class="cls-1" d="M201.3,241h-.19c-4-.12-4.47-3.48-4.47-6,0-2.26.07-3.95,1.11-5a4.47,4.47,0,0,1,3.32-1h0a4.53,4.53,0,0,1,3.41,1.12c1.07,1.12,1.15,3,1.07,4.9C205.49,237.8,204.9,241,201.3,241Zm-.22-11.4a4,4,0,0,0-2.89.85c-.87.87-.94,2.43-.93,4.55,0,3.7,1.16,5.31,3.88,5.39,2.54.08,3.71-1.54,3.86-5.41h0c.1-2.39-.17-3.68-.9-4.45a4,4,0,0,0-3-.93Z"/></g></g></svg>